<?xml version="1.0" encoding="utf-8"?>
<!-- Generator: Adobe Illustrator 15.1.0, SVG Export Plug-In  -->
<!DOCTYPE svg PUBLIC "-//W3C//DTD SVG 1.1//EN" "http://www.w3.org/Graphics/SVG/1.1/DTD/svg11.dtd" [
	<!ENTITY ns_flows "http://ns.adobe.com/Flows/1.0/">
]>
<svg version="1.1"
	 xmlns="http://www.w3.org/2000/svg" xmlns:xlink="http://www.w3.org/1999/xlink" xmlns:a="http://ns.adobe.com/AdobeSVGViewerExtensions/3.0/"
	 x="0px" y="0px" width="260px" height="80px" viewBox="-4.323 -5.14 260 80"
	 overflow="visible" enable-background="new -4.323 -5.14 260 80" xml:space="preserve">
<defs>
</defs>
<g>
	<g>
		<path fill="#4D4D4D" d="M1.467,7.176c0.102-1.12,0.916-1.207,1.439-1.207h5.729c0.276,0,0.436,0.218,0.436,0.422
			c0,0.233-0.16,0.436-0.436,0.436H3.153c-0.393,0-0.756,0.059-0.814,0.698l-0.291,3.374c0.669-0.582,1.73-0.858,3.083-0.858
			c0.96,0,4.566,0,4.566,3.897c0,2.995-2.269,3.795-4.639,3.795c-1.221,0-3.243-0.145-4.173-1.992
			c-0.174-0.334-0.276-0.698-0.276-0.959c0-0.291,0.189-0.465,0.465-0.465c0.378,0,0.437,0.232,0.538,0.582
			c0.48,1.716,1.963,1.978,3.229,1.978c1.352,0,3.882-0.116,3.882-2.952c0-3.025-2.574-3.025-3.621-3.025
			c-1.207,0-2.414,0.204-3.01,0.945c-0.189,0.233-0.305,0.378-0.553,0.378c-0.334,0-0.494-0.232-0.451-0.669L1.467,7.176z"/>
		<path fill="#4D4D4D" d="M20.895,11.699c0,2.298-0.334,6.035-4.537,6.035c-4.188,0-4.537-3.693-4.537-6.035
			c0-2.327,0.349-6.035,4.537-6.035C20.531,5.664,20.895,9.314,20.895,11.699z M12.795,11.699c0,1.949,0.014,5.177,3.562,5.177
			c3.562,0,3.562-3.243,3.562-5.177c0-1.963-0.014-5.177-3.562-5.177C12.795,6.522,12.795,9.765,12.795,11.699z"/>
		<path fill="#4D4D4D" d="M32.732,10.812c0.102,1.556,0.233,2.777,0.698,4.231c0.625-0.873,1.192-2.152,1.396-2.734
			c0.058-0.146,0.131-0.334,0.378-0.334c0.204,0,0.393,0.146,0.393,0.334c0,0.32-0.887,2.327-1.847,3.548
			c0.465,1.047,1.163,1.963,1.6,1.963c0.363,0,0.582-1.047,0.64-1.469c0.073-0.465,0.102-0.611,0.364-0.611
			c0.232,0,0.436,0.189,0.436,0.422c0,0.189-0.16,1.062-0.378,1.57c-0.276,0.684-0.611,0.917-0.975,0.917
			c-0.669,0-1.556-0.844-2.21-2.196c-1.149,1.25-2.865,2.123-3.098,2.123c-0.189,0-0.378-0.189-0.378-0.422
			c0-0.189,0.116-0.247,0.232-0.32c0.786-0.378,2.021-1.105,2.923-2.123c-0.683-1.774-0.887-3.956-0.931-4.9h-6.267
			c-0.378,0-0.553,0.189-0.553,0.567v1.687c0,1.076-0.058,1.614-0.116,2.065c-0.117,0.959-0.451,2.167-0.698,2.763
			c-0.232,0.523-0.363,0.625-0.582,0.625c-0.247,0-0.451-0.218-0.451-0.437c0-0.116,0.029-0.189,0.131-0.363
			c0.931-1.498,0.931-3.621,0.931-4.653v-1.76c0-0.873,0.291-1.178,1.178-1.178h6.384c-0.015-0.247-0.029-0.582-0.029-1.338h-8.129
			c-0.276,0-0.393-0.116-0.393-0.334c0-0.276,0.204-0.334,0.393-0.334h2.283V6.348c0-0.175,0.029-0.422,0.407-0.422
			c0.378,0,0.393,0.262,0.393,0.422v1.774h3.04V5.519c0-0.16,0.029-0.422,0.407-0.422c0.393,0,0.407,0.291,0.407,0.422v0.611h4.639
			c0.218,0,0.407,0.087,0.407,0.334c0,0.32-0.306,0.334-0.407,0.334h-4.639v1.323h5.657c0.32,0,0.407,0.16,0.407,0.349
			c0,0.232-0.174,0.32-0.393,0.32h-1.628c0.349,0.276,0.741,0.959,0.741,1.105c0,0.117-0.087,0.189-0.131,0.233h0.887
			c0.102,0,0.407,0,0.407,0.349c0,0.334-0.305,0.334-0.407,0.334H32.732z M27.265,14.083c0,0.291-0.48,1.454-0.829,2.21
			c-0.334,0.712-0.451,0.843-0.684,0.843c-0.218,0-0.422-0.189-0.422-0.393c0-0.131,0.044-0.218,0.16-0.393
			c0.276-0.436,0.684-1.294,0.945-2.036c0.189-0.509,0.218-0.567,0.436-0.567C27.047,13.749,27.265,13.88,27.265,14.083z
			 M29.068,17.225c0,0.334-0.087,0.901-0.684,1.018c-0.116,0.029-0.843,0.029-1.25,0.029c-0.146,0-0.451-0.029-0.451-0.436
			c0-0.218,0.116-0.364,0.378-0.364c0.044,0,0.829,0.029,0.844,0.029c0.276,0,0.421-0.174,0.421-0.451v-4.305h-2.239
			c-0.116,0-0.407,0-0.407-0.334c0-0.349,0.291-0.349,0.407-0.349h5.119c0.116,0,0.407,0,0.407,0.334
			c0,0.349-0.291,0.349-0.407,0.349h-2.138V17.225z M30.958,14.433c0.174,0.349,0.654,1.323,0.654,1.614
			c0,0.232-0.262,0.378-0.451,0.378c-0.233,0-0.248-0.073-0.465-0.654c-0.16-0.422-0.32-0.785-0.611-1.411
			c-0.073-0.16-0.102-0.218-0.102-0.291c0-0.131,0.131-0.334,0.393-0.334C30.595,13.735,30.682,13.895,30.958,14.433z M32.689,8.791
			c0,0.363,0,1.003,0.014,1.338h2.138c-0.058-0.087-0.378-0.582-0.436-0.654c-0.247-0.32-0.247-0.32-0.247-0.407
			c0-0.16,0.116-0.248,0.174-0.276H32.689z"/>
		<path fill="#4D4D4D" d="M39.684,9.372c-0.102,0-0.436,0-0.436-0.421c0-0.218,0.102-0.378,0.32-0.407
			c0.247-0.029,2.676-0.146,3.126-0.175c0.262-1.047,0.334-1.411,0.553-2.458c0.029-0.174,0.087-0.436,0.465-0.436
			c0.043,0,0.494,0,0.494,0.378c0,0.204-0.523,2.152-0.611,2.472c0.873-0.029,1.28-0.058,1.542-0.058
			c2.371,0,3.083,1.076,3.083,3.723c0,1.701-0.16,3.199-0.422,4.115c-0.363,1.222-0.945,2.021-2.617,2.021
			c-1.105,0-2.167-0.436-2.574-0.654c-0.32-0.16-0.393-0.276-0.393-0.465c0-0.32,0.248-0.465,0.437-0.465
			c0.116,0,0.596,0.276,0.712,0.334c0.625,0.276,1.309,0.393,1.76,0.393c1.062,0,2.195-0.204,2.195-5.22
			c0-2.661-0.668-2.981-2.603-2.981c-0.393,0-0.771,0.015-1.338,0.043c-0.582,2.123-0.873,3.185-1.905,5.773
			c-0.393,0.96-1.134,2.56-1.337,2.85c-0.073,0.117-0.175,0.175-0.334,0.175c-0.102,0-0.451-0.058-0.451-0.437
			c0-0.145,0.029-0.232,0.102-0.363c1.323-2.516,2.283-5.191,3.039-7.94C42.04,9.198,39.902,9.372,39.684,9.372z M50.008,7.787
			c1.614,1.949,1.905,4.842,1.905,5.395c0,0.247-0.014,0.684-0.523,0.684c-0.48,0-0.494-0.349-0.509-0.742
			c-0.146-3.679-1.876-5.221-2.327-5.555c-0.349-0.262-0.422-0.32-0.422-0.509c0-0.247,0.204-0.378,0.407-0.378
			C48.845,6.682,49.543,7.234,50.008,7.787z"/>
		<path fill="#4D4D4D" d="M66.063,13.604c0,3.766-3.897,4.29-6.224,4.29c-1.948,0-3.49-0.291-3.562-0.305
			c-0.131-0.044-0.378-0.102-0.378-0.451c0-0.087,0-0.393,0.407-0.393c0.189,0,1.018,0.146,1.193,0.175
			c0.741,0.102,1.483,0.131,2.225,0.131c1.658,0,3.665-0.218,4.755-1.44c0.582-0.654,0.655-1.716,0.655-1.934V13.56
			c0-0.785-0.334-1.338-0.698-1.716c-0.654-0.669-1.89-0.843-2.749-0.843c-2.705,0-4.29,1.178-5.409,2.196
			c-0.247,0.232-0.422,0.276-0.582,0.276c-0.524,0-0.582-0.494-0.582-0.945c0-0.975,0.189-2.734,0.276-3.679
			c0.058-0.523,0.073-0.712,0.495-0.712c0.32,0,0.465,0.146,0.465,0.378c0,0.073-0.16,1.076-0.189,1.28
			c-0.117,0.843-0.189,2.196-0.189,2.603c1.324-1.105,3.156-2.196,5.686-2.196C63.213,10.201,66.063,10.681,66.063,13.604z
			 M57.688,6.217C57.295,6.173,57.062,6.1,57.062,5.78c0-0.146,0.073-0.407,0.465-0.407c0.451,0,3.083,0.48,4.595,0.887
			c1.643,0.451,1.759,0.567,1.759,0.873c0,0.378-0.393,0.378-0.509,0.378c-0.887,0-1.236,0-2.181,0.102
			c-0.102,0.014-0.567,0.102-0.669,0.102c-0.262,0-0.349-0.218-0.349-0.349c0-0.305,0.276-0.349,0.437-0.378
			c0.349-0.043,0.698-0.073,0.843-0.073C59.723,6.479,58.545,6.333,57.688,6.217z"/>
		<path fill="#4D4D4D" d="M74.178,14.244c-0.611,1.512-1.294,2.516-2.472,2.516c-1.367,0-2.675-1.527-2.675-4.057
			c0-3.897,2.763-6.543,6.762-6.543c4.653,0,6.078,3.141,6.078,5.802c0,2.196-0.931,4.421-3.606,5.41
			c-1.12,0.422-2.385,0.553-2.545,0.553c-0.204,0-0.48-0.073-0.48-0.495c0-0.32,0.146-0.334,0.698-0.378
			c0.959-0.087,1.89-0.334,2.719-0.786c1.875-1.047,2.312-2.981,2.312-4.275c0-1.512-0.64-5.032-5.061-5.046
			C75.589,9.576,75.182,11.728,74.178,14.244z M69.874,12.731c0,1.948,0.916,3.17,1.818,3.17c0.741,0,1.265-0.887,1.73-2.065
			c1.003-2.574,1.367-4.784,1.585-6.864C71.764,7.336,69.874,9.678,69.874,12.731z"/>
		<path fill="#4D4D4D" d="M90.975,16.978c0,1.294-0.625,1.469-1.512,1.469c-0.465,0-1.774,0-1.833-0.015
			c-0.232-0.015-0.349-0.233-0.349-0.465c0-0.393,0.291-0.393,0.436-0.393c0.262,0,1.381,0.029,1.614,0.029
			c0.334,0,0.829-0.014,0.829-0.756V8.514h-5.947c-0.102,0-0.407,0-0.407-0.363c0-0.378,0.305-0.378,0.407-0.378h5.947V5.548
			c0-0.16,0.015-0.422,0.407-0.422c0.334,0,0.393,0.174,0.393,0.422v2.225h6.006c0.116,0,0.407,0,0.407,0.364
			c0,0.378-0.291,0.378-0.407,0.378h-5.991v3.229c0.901-0.334,2.676-1.236,3.839-2.094c0.32-0.232,0.364-0.262,0.495-0.262
			c0.291,0,0.436,0.32,0.436,0.48c0,0.232-0.232,0.393-0.669,0.683c-1.338,0.873-2.734,1.483-3.577,1.861
			c1.542,2.545,3.635,3.665,5.162,4.479c0.306,0.16,0.422,0.218,0.422,0.437c0,0.232-0.204,0.479-0.422,0.479
			c-0.262,0-1.439-0.727-2.123-1.207c-0.916-0.625-2.428-1.745-3.562-3.621V16.978z M83.922,16.687c0-0.204,0.146-0.305,0.305-0.378
			c1.527-0.756,2.734-1.353,4.755-2.618c0.131-0.087,0.204-0.116,0.305-0.116c0.218,0,0.32,0.232,0.32,0.393
			c0,0.174-0.072,0.247-0.232,0.349c-2.007,1.323-2.981,1.832-4.726,2.763c-0.189,0.102-0.291,0.116-0.393,0.102
			C84.039,17.137,83.922,16.847,83.922,16.687z M86.307,10.187c0.364,0.407,1.498,1.789,1.498,2.123c0,0.276-0.306,0.451-0.48,0.451
			c-0.204,0-0.262-0.073-0.669-0.683c-0.437-0.684-1.134-1.498-1.396-1.818c-0.087-0.102-0.146-0.175-0.146-0.291
			c0-0.247,0.276-0.465,0.523-0.407C85.769,9.59,85.842,9.634,86.307,10.187z M93.651,5.606c0.451,0.305,1.148,0.873,1.367,1.076
			c0.073,0.073,0.146,0.16,0.146,0.305c0,0.218-0.204,0.437-0.422,0.437c-0.146,0-0.204-0.044-0.625-0.437
			c-0.349-0.32-0.771-0.625-1.309-1.032c-0.145-0.102-0.174-0.189-0.174-0.291c0-0.276,0.247-0.407,0.334-0.407
			C93.127,5.257,93.156,5.271,93.651,5.606z"/>
		<path fill="#4D4D4D" d="M105.866,6.798c0,0.451-0.073,1.498-0.174,2.355c0.116,0.756,0.232,1.207,0.436,1.934
			c0.451,1.498,1.134,2.952,2.21,4.086c0.974,1.018,2.152,1.818,3.417,2.443c0.204,0.102,0.364,0.175,0.364,0.378
			c0,0.073-0.073,0.524-0.495,0.524c-0.276,0-1.759-0.873-2.966-1.934c-0.727-0.625-2.443-2.109-3.301-5.599
			c-0.654,2.632-1.905,4.304-3.287,5.569c-0.843,0.771-2.472,1.963-2.865,1.963c-0.291,0-0.48-0.291-0.48-0.538
			c0-0.16,0.102-0.248,0.291-0.349c0.742-0.393,1.934-1.134,2.908-2.094c2.21-2.196,3.054-5.22,3.054-8.55V5.621
			c0-0.102,0-0.437,0.451-0.437c0.436,0,0.436,0.349,0.436,0.437V6.798z"/>
		<path fill="#4D4D4D" d="M123.215,6.013c0-0.131,0-0.451,0.422-0.451c0.436,0,0.451,0.305,0.451,0.451v2.603h2.327
			c0.116,0,0.451,0,0.451,0.421c0,0.437-0.334,0.437-0.451,0.437h-2.327v2.181c0,3.141-1.149,5.002-4.101,6.02
			c-0.669,0.233-1.833,0.495-2.487,0.495c-0.523,0-0.553-0.393-0.553-0.48c0-0.349,0.291-0.407,0.669-0.436
			c5.541-0.48,5.599-4.101,5.599-5.715V9.474h-5.904v3.868c0,0.131,0,0.465-0.436,0.465c-0.422,0-0.437-0.305-0.437-0.465V9.474
			h-2.297c-0.117,0-0.465,0-0.465-0.422c0-0.436,0.349-0.436,0.465-0.436h2.297V6.1c0-0.131,0-0.465,0.437-0.465
			c0.421,0,0.436,0.306,0.436,0.465v2.516h5.904V6.013z"/>
		<path fill="#4D4D4D" d="M136.202,17.821c0,0.146,0,0.465-0.451,0.465c-0.465,0-0.465-0.32-0.465-0.465v-7.358
			c-2.487,1.352-5.7,2.37-6.18,2.37c-0.465,0-0.465-0.436-0.465-0.48c0-0.363,0.218-0.407,0.698-0.509
			c1.134-0.247,4.45-1.323,7.198-3.199c1.803-1.221,2.487-1.978,3.214-2.749c0.145-0.145,0.291-0.32,0.509-0.32
			c0.291,0,0.523,0.189,0.523,0.451c0,0.233-0.116,0.378-0.334,0.597c-1.818,1.774-3.301,2.748-4.246,3.315V17.821z"/>
		<path fill="#4D4D4D" d="M148.2,17.894c0,0.146,0,0.465-0.465,0.465s-0.465-0.305-0.465-0.465V5.896c0-0.116,0-0.465,0.451-0.465
			c0.465,0,0.48,0.306,0.48,0.465v3.563c2.341,0.684,4.609,1.628,6.776,2.777c0.756,0.407,0.901,0.509,0.901,0.785
			c0,0.233-0.16,0.523-0.436,0.523c-0.16,0-0.204-0.043-1.033-0.509c-1.454-0.843-3.374-1.643-3.723-1.803
			c-1.192-0.48-1.905-0.698-2.486-0.858V17.894z"/>
	</g>
</g>
<g>
	<g>
		<path fill="#333333" d="M4.464,42.027c0.579,0,1.185,0.441,1.185,1.075c0,0.386-0.11,0.579-1.075,2.314
			c-0.22,0.414-0.275,0.524-0.937,2.122c-0.165,0.331-0.441,0.854-1.488,0.854c-0.91,0-1.212-0.496-1.406-1.103
			C0.11,45.058,0,40.428,0,37.92c0-5.87,0.716-10.802,0.992-11.959c0.166-0.579,0.386-1.185,1.488-1.185
			c0.634,0,1.571,0.165,1.571,1.268c0,0.606-0.468,3.224-0.523,3.775c-0.11,0.937-0.496,4.437-0.496,7.992
			c0,2.205,0.138,4.492,0.22,5.291C3.472,42.661,3.803,42.027,4.464,42.027z M14.633,26.292c-0.028-0.579,0.027-1.626,1.543-1.626
			c1.516,0,1.543,0.992,1.571,1.598l0.055,3.362c0.551-0.028,3.527-0.166,3.858-0.166c0.414,0,1.543,0,1.543,1.46
			c0,1.24-0.854,1.378-1.13,1.406c-0.358,0.055-3.555,0.165-4.244,0.193l0.11,6.559c1.709,0.909,3.225,1.984,4.657,3.334
			c0.827,0.744,1.047,1.268,1.047,1.736c0,0.965-0.799,1.708-1.543,1.708c-0.579,0-0.662-0.11-1.929-1.433
			c-0.854-0.91-1.764-1.571-2.37-1.984c0,0.634,0,1.653-0.138,2.508c-0.523,2.949-3.527,3.472-5.511,3.472
			c-0.827,0-2.729-0.11-4.189-1.102c-1.46-0.992-2.067-2.646-2.067-4.189c0-3.279,2.535-5.346,6.311-5.346
			c1.295,0,2.177,0.221,2.701,0.358l-0.138-5.512c-1.102,0.055-5.181,0.138-7.523,0.138c-0.496,0-1.599,0-1.599-1.461
			c0-1.433,0.992-1.433,1.901-1.433c2.37-0.028,5.126-0.055,7.165-0.138L14.633,26.292z M11.932,45.857
			c0.937,0,2.701-0.22,2.976-1.957c0.138-0.854,0.083-2.59,0.055-2.976c-0.606-0.275-1.378-0.579-2.728-0.579
			c-1.13,0-3.638,0.331-3.638,2.838C8.598,45.83,11.381,45.857,11.932,45.857z"/>
		<path fill="#333333" d="M33.038,25.272c0.248-0.854,0.964-0.937,1.35-0.937c1.268,0,1.653,0.606,1.653,1.378
			c0,0.303-0.138,1.157-0.331,2.342c1.626-0.028,3.169-0.083,5.897-0.221c0.248,0,2.315-0.11,2.425-0.11
			c0.441,0,1.543,0.027,1.543,1.46c0,1.24-0.854,1.35-1.13,1.405c-0.193,0.028-4.023,0.248-9.314,0.386
			c-1.13,5.567-3.224,11.685-3.996,13.861c-1.102,3.031-1.377,3.72-2.48,3.72c-0.551,0-1.708-0.303-1.708-1.378
			c0-0.303,0.027-0.551,0.579-1.764c0.799-1.708,2.288-5.622,3.307-9.397c0.441-1.653,0.827-3.307,1.157-4.96
			c-0.606,0-3.224,0.028-3.748-0.027c-0.469-0.055-1.13-0.275-1.13-1.405c0-1.158,0.634-1.46,1.543-1.46
			c0.386,0,2.012,0.027,2.342,0.027c0.579,0,0.937-0.027,1.516-0.027C32.9,25.851,32.928,25.603,33.038,25.272z M49.848,48.172
			c-0.469,0.11-1.984,0.331-4.712,0.331c-3.693,0-5.842-0.386-7.192-1.129c-1.516-0.854-2.729-2.618-2.729-4.023
			c0-1.406,1.378-1.461,1.654-1.461c1.24,0,1.488,0.772,1.708,1.406c0.661,2.012,2.397,2.342,5.566,2.342
			c1.102,0,2.397-0.055,3.72-0.193c1.295-0.138,1.46-0.166,1.708-0.166c1.02,0,1.433,0.579,1.433,1.406
			C51.005,47.538,50.564,48.007,49.848,48.172z M49.683,36.874c-0.331,0.193-0.689,0.22-0.937,0.22s-1.405-0.11-2.094-0.165
			c-0.414-0.028-0.744-0.028-1.406-0.028c-1.35,0-2.728,0.055-4.051,0.193c-0.303,0.028-2.397,0.248-2.508,0.248
			c-1.268,0-1.268-1.268-1.268-1.405c0-1.075,0.717-1.405,2.535-1.653c1.764-0.248,4.464-0.331,5.732-0.331
			c0.055,0,3.141,0.028,3.913,0.414c0.606,0.331,0.606,0.854,0.606,1.378C50.206,36.074,50.041,36.625,49.683,36.874z"/>
		<path fill="#333333" d="M69.245,33.236c3.417,0,8.377,1.295,8.377,6.779c0,2.949-1.185,5.263-3.831,6.669
			c-1.488,0.771-3.637,1.598-8.129,1.598c-2.094,0-4.216-0.138-6.255-0.551c-0.523-0.11-1.516-0.331-1.516-1.543
			c0-0.193,0.027-0.606,0.275-0.937c0.331-0.441,0.827-0.469,1.13-0.469c0.138,0,0.276,0,1.075,0.166
			c2.094,0.414,4.023,0.468,5.071,0.468c3.196,0,4.988-0.468,6.366-1.157c1.791-0.882,2.562-2.315,2.562-4.271
			c0-0.827-0.22-1.901-1.295-2.838c-1.212-1.075-3.445-1.185-4.271-1.185c-3.803,0-6.311,1.323-8.24,2.784
			c-0.22,0.165-1.185,1.102-1.405,1.24c-0.358,0.193-0.744,0.303-1.103,0.303c-1.185,0-1.681-0.744-1.681-2.26
			c0-1.185,0.248-5.484,0.413-6.889c0.11-0.91,0.248-1.681,1.516-1.681c0.303,0,1.626,0,1.626,1.268c0,0.358-0.22,1.984-0.275,2.315
			c-0.193,1.819-0.221,2.811-0.248,3.417C62.879,33.87,66.848,33.236,69.245,33.236z M61.391,26.897
			c-1.488-0.22-1.543-0.909-1.543-1.295c0-0.193,0-1.543,1.433-1.543c0.992,0,5.208,0.662,8.432,1.461
			c3.5,0.882,3.666,1.405,3.666,2.039c0,0.083,0,1.295-1.213,1.405c-0.496,0.028-2.7,0.166-3.141,0.193
			c-0.386,0.055-2.012,0.276-2.343,0.276c-0.634,0-1.157-0.524-1.157-1.158c0-0.358,0.11-0.523,0.303-0.744
			C64.588,27.338,62.604,27.118,61.391,26.897z"/>
		<path fill="#333333" d="M86.465,33.374c2.26-1.405,6.366-3.968,7.744-4.877c2.067-1.378,2.756-1.957,4.547-3.5
			c0.248-0.248,0.662-0.579,1.295-0.579c0.937,0,1.819,0.662,1.819,1.598c0,0.662-0.358,1.103-1.516,2.012
			c-3.444,2.701-6.668,4.547-11.491,7.303c-0.964,0.551-1.268,0.827-1.268,1.295c0,0.496,0.386,0.744,1.157,1.102
			c4.134,1.984,6.724,3.225,11.078,6.09c3.252,2.094,3.5,2.618,3.5,3.445c0,0.744-0.771,1.653-1.708,1.653
			c-0.662,0-1.13-0.303-1.708-0.799c-1.571-1.295-4.657-3.72-9.866-6.531c-0.689-0.386-3.858-1.847-4.492-2.205
			c-1.075-0.606-1.819-1.268-1.819-2.646C83.737,35.082,84.839,34.393,86.465,33.374z"/>
		<path fill="#333333" d="M131.629,47.345c-1.736,0.468-5.76,0.799-9.453,0.799c-5.952,0-8.653-0.992-10.582-4.079
			c-0.22-0.386-0.964-1.653-0.964-2.756c0-1.157,1.047-1.543,1.708-1.543c1.13,0,1.351,0.606,1.847,2.012
			c0.138,0.386,0.771,1.571,1.625,2.205c0.965,0.716,2.177,1.185,5.732,1.185c2.425,0,4.878-0.138,7.303-0.496
			c0.441-0.055,2.453-0.469,2.866-0.469c0.689,0,1.488,0.358,1.488,1.406C133.2,46.767,132.758,47.042,131.629,47.345z
			 M115.232,29.13c-0.468,0.055-0.827,0.055-1.02,0.055c-1.185,0-1.984-0.303-1.984-1.516c0-1.158,0.634-1.433,1.488-1.488
			c1.571-0.083,4.106-0.166,5.649-0.166c2.232,0,5.622,0.055,7.744,0.276c0.716,0.083,1.846,0.22,1.846,1.543
			c0,1.075-0.744,1.351-1.35,1.571c-0.717,0.248-2.288,0.91-4.161,2.122c-1.516,0.937-1.681,1.047-2.205,1.047
			c-0.827,0-1.488-0.662-1.488-1.406c0-0.496,0.358-0.909,0.854-1.24c0.496-0.303,1.24-0.744,2.205-1.13
			C119.972,28.771,117.409,28.964,115.232,29.13z M129.81,25.079c0.441,0,0.716,0.193,1.433,1.405c0.386,0.606,1.02,1.708,1.02,2.26
			c0,0.523-0.579,0.771-0.937,0.771c-0.469,0-0.551-0.166-1.158-1.295c-0.248-0.468-0.468-0.854-0.689-1.212
			c-0.468-0.689-0.496-0.771-0.523-0.992C128.818,25.437,129.424,25.079,129.81,25.079z M132.511,23.866
			c0.551,0,1.02,0.827,1.433,1.516c0.276,0.496,0.882,1.571,0.882,2.04c0,0.579-0.634,0.799-0.937,0.799
			c-0.496,0-0.634-0.275-1.13-1.268c-0.165-0.303-0.413-0.771-0.661-1.157c-0.386-0.662-0.551-0.882-0.551-1.185
			C131.546,24.169,132.07,23.866,132.511,23.866z"/>
		<path fill="#333333" d="M154.994,34.228c-0.22,0.248-0.551,0.634-1.323,1.295c0.799,0.992,1.268,1.957,1.708,2.949
			c0.992-0.579,1.901-1.157,3.114-2.094c1.075-0.854,1.24-0.992,1.681-0.992c0.827,0,1.323,0.744,1.323,1.295
			c0,0.523-0.358,0.909-1.102,1.46c-1.24,0.937-2.122,1.46-3.114,2.039c0.551,0.799,1.736,2.563,3.334,3.941
			c1.047,0.882,1.461,1.295,1.461,1.874c0,0.634-0.606,1.543-1.488,1.543c-0.414,0-0.634-0.138-1.681-1.268
			c-1.102-1.212-1.708-2.122-2.37-3.142c0.083,0.937,0.083,3.803-0.91,5.208c-0.827,1.13-2.535,1.102-3.996,1.075
			c-0.496,0-1.599-0.028-1.599-1.24c0-0.055,0-0.992,0.799-1.157c0.11-0.028,1.212-0.028,1.378-0.028
			c1.102,0,1.901-0.275,1.764-3.665c-1.984,1.819-6.476,4.712-7.551,4.712c-0.799,0-1.24-0.799-1.24-1.378
			c0-0.248,0.083-0.496,0.303-0.661c0.193-0.166,1.543-0.799,2.342-1.185c1.488-0.689,4.437-2.618,5.815-3.968
			c-0.028-0.166-0.138-0.523-0.331-1.075c-1.653,1.405-4.822,3.279-5.677,3.279c-0.661,0-1.157-0.717-1.157-1.295
			s0.027-0.579,2.012-1.46c0.689-0.303,2.535-1.24,3.886-2.342c-0.138-0.275-0.276-0.496-0.634-0.992
			c-0.22,0.166-2.893,1.929-3.83,1.929c-0.358,0-0.772-0.248-1.02-0.717c-0.358,0.303-0.799,0.358-0.992,0.358
			c-0.606,0-0.772-0.414-0.992-0.909c-0.331,0.027-1.901,0.248-2.287,0.275V48.42c0,0.331,0,1.268-1.158,1.268
			c-1.13,0-1.13-0.964-1.13-1.268V38.113c-1.598,0.11-2.673,0.221-3.196,0.221c-0.358,0-1.433,0-1.433-1.268
			c0-0.689,0.193-0.882,1.02-1.653c0.331-0.331,0.771-0.854,2.535-2.921c-0.579-0.579-1.212-1.13-1.846-1.653
			c-0.358-0.331-0.854-0.744-0.854-1.35c0-0.276,0.138-0.634,0.469-1.075c0.551-0.744,1.35-1.764,2.205-3.169
			c0.771-1.268,0.882-1.46,1.488-1.46c0.827,0,1.599,0.689,1.599,1.212c0,0.138-0.055,0.331-0.138,0.496
			c-0.414,0.882-1.516,2.425-2.205,3.307c-0.166,0.22-0.221,0.303-0.221,0.468c0,0.248,0.11,0.358,0.276,0.523
			c0.275,0.248,0.551,0.524,0.827,0.799c0.579-0.716,0.771-0.964,2.314-3.142c0.248-0.331,0.551-0.634,0.992-0.634
			c0.579,0,1.488,0.606,1.488,1.351c0,0.248-0.083,0.496-0.358,0.909c-1.681,2.315-4.299,5.071-5.236,6.035
			c-0.221,0.248-0.248,0.275-0.248,0.358c0,0.221,0.221,0.221,0.303,0.221c0.138,0,3.61-0.275,3.885-0.303
			c-0.083-0.165-0.386-0.744-0.579-1.102c-0.138-0.276-0.193-0.496-0.193-0.689c0-0.469,0.551-0.772,1.02-0.772
			c0.634,0,0.854,0.358,1.433,1.488c0.303,0.579,0.827,1.543,1.295,2.646c0.193-0.193,1.46-0.716,1.736-0.854
			c2.067-1.047,2.536-1.543,2.866-1.874h-4.382c-0.964,0-1.24-0.496-1.24-1.13c0-0.662,0.358-1.103,1.24-1.103h9.645v-1.571h-8.129
			c-0.937,0-1.075-0.523-1.075-1.102c0-0.662,0.358-0.992,1.075-0.992h8.129v-0.716c0-0.579-0.331-0.771-0.771-0.771h-7.633
			c-0.91,0-1.24-0.386-1.24-1.213c0-1.047,0.91-1.075,1.24-1.075h8.405c1.847,0,2.756,0.634,2.756,2.783v4.712h1.295
			c0.799,0,1.13,0.469,1.13,1.13c0,0.91-0.689,1.047-1.213,1.047H154.994z M139.204,40.649c0,1.02-0.275,4.079-0.689,5.649
			c-0.248,0.992-0.468,1.516-1.157,1.516c-0.027,0-1.295-0.027-1.295-1.047c0-0.441,0.551-2.342,0.606-2.756
			c0.138-0.882,0.275-2.315,0.386-3.5c0.055-0.496,0.11-1.103,0.992-1.103C139.204,39.409,139.204,40.125,139.204,40.649z
			 M145.652,40.373c0.055,0.221,0.579,2.866,0.579,3.748c0,1.047-0.937,1.047-1.212,1.047c-0.717,0-0.772-0.44-0.937-1.681
			c-0.221-1.599-0.248-1.792-0.441-2.866c-0.028-0.165-0.028-0.248-0.028-0.386c0-0.275,0.055-0.496,0.276-0.661
			c0.165-0.138,0.523-0.248,0.689-0.248C145.376,39.326,145.515,39.657,145.652,40.373z"/>
	</g>
</g>
<path fill="#E51213" stroke="#E51213" stroke-linecap="round" stroke-linejoin="round" stroke-miterlimit="10" d="M168.765,47.821
	v-6.726c2.818,1.333,5.59,2,8.317,2c1.848,0,3.211-0.56,4.09-1.682c0.878-1.121,1.318-3.029,1.318-5.727V15.688h7.954v21.043
	c0,4.484-0.97,7.704-2.909,9.658c-1.939,1.955-5.061,2.932-9.362,2.932C174.719,49.321,171.583,48.821,168.765,47.821z"/>
<path fill="#E51213" stroke="#E51213" stroke-linecap="round" stroke-linejoin="round" stroke-miterlimit="10" d="M224.677,49.999
	V15.688h7.727v34.311H224.677z"/>
<circle fill="#E51213" stroke="#E51213" stroke-miterlimit="10" cx="186.144" cy="6.161" r="5.662"/>
<path fill="#E51213" d="M208.245,22.761c-7.139,0-12.926,5.788-12.926,12.926s5.788,12.926,12.926,12.926
	c7.139,0,12.926-5.787,12.926-12.926S215.384,22.761,208.245,22.761z M208.245,40.293c-2.543,0-4.605-2.062-4.605-4.605
	c0-2.543,2.062-4.605,4.605-4.605s4.606,2.062,4.606,4.605C212.851,38.231,210.788,40.293,208.245,40.293z"/>
<path fill="#E51213" stroke="#E51213" stroke-linecap="round" stroke-linejoin="round" stroke-miterlimit="10" d="M232.36,26.734
	l-0.433,7.995c8.287,0.748,14,6.042,13.833,13.252c-0.18,7.772-7.896,11.914-16.714,12.227c-1.375,0.049-1.87,0.093-4.87-0.25v8.327
	c1,0.228,3.415,0.363,4.729,0.39c12.693,0.257,24.287-8.855,24.521-20.446C253.648,37.31,244.254,27.808,232.36,26.734z"/>
</svg>
